<?xml version="1.0" standalone="no"?><!DOCTYPE svg PUBLIC "-//W3C//DTD SVG 1.1//EN"
        "http://www.w3.org/Graphics/SVG/1.1/DTD/svg11.dtd"><svg viewBox="0 0 1024 1024" version="1.1" xmlns="http://www.w3.org/2000/svg" xmlns:xlink="http://www.w3.org/1999/xlink"><path transform="scale(1, -1) translate(0, -1024)" d="M73.142857 896h877.714286v-877.714286H73.142857zM694.857143 795.428571a27.428571 27.428571 0 0 0 23.277714-12.928l1.261714-2.249142 70.034286-140.233143L868.571429 640v-54.857143l-51.730286 0.018286 48.694857-97.462857a27.428571 27.428571 0 0 0 2.761143-9.709715l0.128-2.56 0.146286-256v-73.142857a27.428571 27.428571 0 0 0-24.795429-27.300571L841.142857 118.857143h-146.285714a27.428571 27.428571 0 0 0-27.300572 24.795428L667.428571 146.285714l-0.018285 45.714286h-310.857143L356.571429 146.285714a27.428571 27.428571 0 0 0-22.217143-26.934857l-2.56-0.365714L329.142857 118.857143H182.857143a27.428571 27.428571 0 0 0-27.300572 24.795428L155.428571 146.285714V475.428571c0 3.401143 0.64 6.765714 1.865143 9.929143l1.024 2.340572L207.049143 585.142857 155.428571 585.142857v54.857143l79.049143 0.018286 70.125715 140.251428a27.428571 27.428571 0 0 0 21.961142 15.030857L329.142857 795.428571h365.714286zM411.428571 566.857143h-54.857142v-63.981714L292.571429 502.857143v-54.857143l64 0.018286V384h54.857142v64.018286l64-0.018286v54.857143l-64 0.018286V566.857143zM731.428571 502.857143H548.571429v-54.857143h182.857142v54.857143z"/></svg>