<?xml version="1.0" standalone="no"?><!DOCTYPE svg PUBLIC "-//W3C//DTD SVG 1.1//EN"
        "http://www.w3.org/Graphics/SVG/1.1/DTD/svg11.dtd"><svg viewBox="0 0 1024 1024" version="1.1" xmlns="http://www.w3.org/2000/svg" xmlns:xlink="http://www.w3.org/1999/xlink"><path transform="scale(1, -1) translate(0, -1024)" d="M112 704A112 112 0 0 0 224 592v-512a112 112 0 0 0-224 0v512A112 112 0 0 0 112 704zM32 592v-512a80 80 0 1 1 160 0v512a80 80 0 0 1-160 0zM912 704A112 112 0 0 0 1024 592v-512a112 112 0 0 0-224 0v512A112 112 0 0 0 912 704z m0-32A80 80 0 0 1 832 592v-512a80 80 0 1 1 160 0v512A80 80 0 0 1 912 672z m-34.848-681.12l25.664-19.136A207.68 207.68 0 0 0 736-112H288a207.68 207.68 0 0 0-166.496 83.328l25.6 19.2A175.68 175.68 0 0 1 288-80h448a175.68 175.68 0 0 1 141.152 70.88zM112 672h-32A208 208 0 0 0 288 880h448A208 208 0 0 0 944 672h-32A176 176 0 0 1 736 848H288A176 176 0 0 1 112 672zM192 96h640v-32H192v32z m320 304a176 176 0 1 1 0 352 176 176 0 0 1 0-352z m-83.04-14.752A208.064 208.064 0 0 0 512 784a208 208 0 0 0 83.04-398.752A240.096 240.096 0 0 0 752 160a16 16 0 1 0-32 0 208 208 0 1 1-416 0 16 16 0 1 0-32 0 240.096 240.096 0 0 0 156.96 225.248z"/></svg>