<?xml version="1.0" standalone="no"?><!DOCTYPE svg PUBLIC "-//W3C//DTD SVG 1.1//EN"
        "http://www.w3.org/Graphics/SVG/1.1/DTD/svg11.dtd"><svg viewBox="0 0 1024 1024" version="1.1" xmlns="http://www.w3.org/2000/svg" xmlns:xlink="http://www.w3.org/1999/xlink"><path transform="scale(1, -1) translate(0, -1024)" d="M294.144 327.136a13.6 13.6 0 0 1 1.344-1.664l154.56-164.928c33.952-39.968 90.72-39.968 125.12 0.48l153.6 164.864a140.16 140.16 0 0 1 3.776 4.032l2.272 2.432a13.536 13.536 0 0 1 1.792 2.368c20.48 25.6 31.392 57.696 31.392 92.832a148.448 148.448 0 0 1-256 102.304 148.448 148.448 0 0 1-256-102.304c0-37.12 14.08-73.408 38.144-100.416zM512-32C282.24-32 96 154.24 96 384S282.24 800 512 800s416-186.24 416-416-186.24-416-416-416z"/></svg>