<?xml version="1.0" standalone="no"?><!DOCTYPE svg PUBLIC "-//W3C//DTD SVG 1.1//EN"
        "http://www.w3.org/Graphics/SVG/1.1/DTD/svg11.dtd"><svg viewBox="0 0 1024 1024" version="1.1" xmlns="http://www.w3.org/2000/svg" xmlns:xlink="http://www.w3.org/1999/xlink"><path transform="scale(1, -1) translate(0, -1024)" d="M864 394.976a32 32 0 1 0 64 0V128a160 160 0 0 0-160-160H256a160 160 0 0 0-160 160V640a160 160 0 0 0 160 160h304.576a32 32 0 1 0 0-64H256a96 96 0 0 1-96-96v-512a96 96 0 0 1 96-96h512a96 96 0 0 1 96 96v266.976z m-13.824 353.056a32 32 0 0 0 46.784-43.648L547.84 329.92a32 32 0 1 0-46.816 43.648L850.176 748.032z"/></svg>