<?xml version="1.0" standalone="no"?><!DOCTYPE svg PUBLIC "-//W3C//DTD SVG 1.1//EN"
        "http://www.w3.org/Graphics/SVG/1.1/DTD/svg11.dtd"><svg viewBox="0 0 1024 1024" version="1.1" xmlns="http://www.w3.org/2000/svg" xmlns:xlink="http://www.w3.org/1999/xlink"><path transform="scale(1, -1) translate(0, -1024)" d="M96 576a32 32 0 1 0 0 64h832a32 32 0 0 0 0-64H96z m736 0h64v-448a160 160 0 0 0-160-160H288a160 160 0 0 0-160 160V576h64v-96H128v96h64v-448a96 96 0 0 1 96-96h448a96 96 0 0 1 96 96V576z m-512-112a32 32 0 0 0 64 0v-320a32 32 0 0 0-64 0v320z m320 0a32 32 0 0 0 64 0v-320a32 32 0 0 0-64 0v320zM288 640H224V704a96 96 0 0 0 96 96h384a96 96 0 0 0 96-96v-64h-64V672h64v-32h-64V704a32 32 0 0 1-32 32H320a32 32 0 0 1-32-32v-64z"/></svg>