<?xml version="1.0" standalone="no"?><!DOCTYPE svg PUBLIC "-//W3C//DTD SVG 1.1//EN"
        "http://www.w3.org/Graphics/SVG/1.1/DTD/svg11.dtd"><svg viewBox="0 0 1024 1024" version="1.1" xmlns="http://www.w3.org/2000/svg" xmlns:xlink="http://www.w3.org/1999/xlink"><path transform="scale(1, -1) translate(0, -1024)" d="M146.645333 299.989333a21.717333 21.717333 0 0 0-8.789333 7.061334L68.224 402.133333a21.824 21.824 0 1 0 35.2 25.792l27.690667-37.802666C139.2 611.968 321.6 789.333333 545.408 789.333333 774.4 789.333333 960 603.733333 960 374.762667s-185.6-414.592-414.570667-414.592c-147.882667 0-282.24 78.08-356.48 202.837333a21.824 21.824 0 1 0 37.482667 22.314667 370.688 370.688 0 0 1 318.997333-181.504c204.864 0 370.922667 166.08 370.922667 370.944 0 204.864-166.058667 370.922667-370.922667 370.922666-204.864 0-370.944-166.058667-370.944-370.922666 0-17.621333 1.216-35.072 3.626667-52.266667a21.824 21.824 0 0 0-31.466667-22.506667z m420.586667 74.773334v-65.472h152.746667a21.824 21.824 0 0 0 0-43.626667h-152.746667v-130.922667a21.824 21.824 0 1 0-43.626667 0v130.922667h-152.746666a21.824 21.824 0 0 0 0 43.626667h152.746666v65.472h-152.746666a21.824 21.824 0 0 0 0 43.626666h140.202666l-151.936 124.992a21.824 21.824 0 1 0 27.712 33.706667l159.637334-131.306667L706.133333 577.066667a21.824 21.824 0 1 0 27.733334-33.706667l-151.957334-124.970667h138.090667a21.824 21.824 0 0 0 0-43.626666h-152.746667z"/></svg>