<?xml version="1.0" standalone="no"?><!DOCTYPE svg PUBLIC "-//W3C//DTD SVG 1.1//EN"
        "http://www.w3.org/Graphics/SVG/1.1/DTD/svg11.dtd"><svg viewBox="0 0 1024 1024" version="1.1" xmlns="http://www.w3.org/2000/svg" xmlns:xlink="http://www.w3.org/1999/xlink"><path transform="scale(1, -1) translate(0, -1024)" d="M114.133333 405.333333l-14.656-22.378666a21.333333 21.333333 0 0 1-3.477333-11.690667V170.666667a21.333333 21.333333 0 0 1 21.333333-21.333334h42.794667v-42.666666H117.333333a64 64 0 0 0-64 64v200.597333a64 64 0 0 0 10.453334 35.072l134.101333 204.736A64 64 0 0 0 251.434667 640h144.746666A149.376 149.376 0 0 0 544 768h277.333333a149.333333 149.333333 0 0 0 149.333334-149.333333v-362.666667a149.333333 149.333333 0 0 0-149.333334-149.333333v42.666666a106.666667 106.666667 0 0 1 106.666667 106.666667V618.666667a106.666667 106.666667 0 0 1-106.666667 106.666666h-277.333333a106.666667 106.666667 0 0 1-106.666667-106.666666v-469.333334h231.36v-42.666666h-338.773333v42.666666H394.666667V597.333333h-64v-170.666666a64 64 0 0 0-64-64h-170.666667v42.666666h18.133333z m0 0h152.533334a21.333333 21.333333 0 0 1 21.333333 21.333334v170.666666h-36.565333a21.333333 21.333333 0 0 1-17.856-9.642666L114.133333 405.333333zM245.333333 0a106.666667 106.666667 0 1 0 0 213.333333 106.666667 106.666667 0 0 0 0-213.333333z m0 42.666667a64 64 0 1 1 0 128 64 64 0 0 1 0-128zM757.333333 0a106.666667 106.666667 0 1 0 0 213.333333 106.666667 106.666667 0 0 0 0-213.333333z m0 42.666667a64 64 0 1 1 0 128 64 64 0 0 1 0-128z"/></svg>