<?xml version="1.0" standalone="no"?><!DOCTYPE svg PUBLIC "-//W3C//DTD SVG 1.1//EN"
        "http://www.w3.org/Graphics/SVG/1.1/DTD/svg11.dtd"><svg viewBox="0 0 1024 1024" version="1.1" xmlns="http://www.w3.org/2000/svg" xmlns:xlink="http://www.w3.org/1999/xlink"><path transform="scale(1, -1) translate(0, -1024)" d="M703.04 416.64c-0.896-3.776-3.136-9.248-6.304-15.872h0.064l-0.384-0.64c-18.464-38.304-66.72-113.472-66.72-113.472l-0.256 0.448-14.08-23.776h67.936L553.536 96l29.44 113.824h-53.44l18.56 75.264c-15.04-3.52-32.8-8.32-53.824-14.912 0 0-28.48-16.16-81.984 31.104 0 0-36.128 30.816-15.168 38.528 8.896 3.296 43.2 7.456 70.208 10.976 36.48 4.8 58.944 7.328 58.944 7.328s-112.512-1.632-139.2 2.432c-26.688 4.064-60.544 47.264-67.744 85.216 0 0-11.168 20.8 24 10.976 35.104-9.888 180.576-38.4 180.576-38.4s-189.184 56.192-201.76 69.92c-12.576 13.728-37.056 74.88-33.856 112.48 0 0 1.376 9.344 11.296 6.848 0 0 139.84-61.952 235.456-95.872 95.616-33.92 178.752-51.2 168-95.104zM512 832C264.576 832 64 631.424 64 384c0-247.456 200.576-448 448-448s448 200.544 448 448c0 247.424-200.576 448-448 448"/></svg>