<?xml version="1.0" standalone="no"?><!DOCTYPE svg PUBLIC "-//W3C//DTD SVG 1.1//EN"
        "http://www.w3.org/Graphics/SVG/1.1/DTD/svg11.dtd"><svg viewBox="0 0 1024 1024" version="1.1" xmlns="http://www.w3.org/2000/svg" xmlns:xlink="http://www.w3.org/1999/xlink"><path transform="scale(1, -1) translate(0, -1024)" d="M704 704a106.666667 106.666667 0 0 0 106.666667-106.666667v-469.333333a106.666667 106.666667 0 0 0-106.666667-106.666667H320a106.666667 106.666667 0 0 0-106.666667 106.666667V597.333333a106.666667 106.666667 0 0 0 106.666667 106.666667 21.333333 21.333333 0 1 1 0 42.666667 149.333333 149.333333 0 0 1-149.333333-149.333334v-469.333333a149.333333 149.333333 0 0 1 149.333333-149.333333h384a149.333333 149.333333 0 0 1 149.333333 149.333333V597.333333a149.333333 149.333333 0 0 1-149.333333 149.333334 21.333333 21.333333 0 0 1 0-42.666667zM320 341.333333a21.333333 21.333333 0 0 0 0 42.666667h384a21.333333 21.333333 0 0 0 0-42.666667H320z m0 128a21.333333 21.333333 0 0 0 0 42.666667h384a21.333333 21.333333 0 0 0 0-42.666667H320z m0-256a21.333333 21.333333 0 0 0 0 42.666667h384a21.333333 21.333333 0 0 0 0-42.666667H320zM405.333333 704h213.333334a21.333333 21.333333 0 0 1 0 42.666667H405.333333a21.333333 21.333333 0 0 1 0-42.666667z"/></svg>