<?xml version="1.0" standalone="no"?><!DOCTYPE svg PUBLIC "-//W3C//DTD SVG 1.1//EN"
        "http://www.w3.org/Graphics/SVG/1.1/DTD/svg11.dtd"><svg viewBox="0 0 1024 1024" version="1.1" xmlns="http://www.w3.org/2000/svg" xmlns:xlink="http://www.w3.org/1999/xlink"><path transform="scale(1, -1) translate(0, -1024)" d="M277.568 53.290667A403.477333 403.477333 0 0 1 512-21.333333c87.36 0 168.256 27.626667 234.432 74.624C740.885333 177.962667 638.058667 277.333333 512 277.333333c-126.037333 0-228.864-99.370667-234.432-224.042666z m-39.637333 32.064c15.36 99.413333 83.498667 181.376 174.890666 216.384A213.312 213.312 0 0 0 298.666667 490.666667c0 117.824 95.509333 213.333333 213.333333 213.333333s213.333333-95.509333 213.333333-213.333333a213.312 213.312 0 0 0-114.154666-188.928c91.392-34.986667 159.530667-116.970667 174.890666-216.384A404.266667 404.266667 0 0 1 917.333333 384c0 223.850667-181.482667 405.333333-405.333333 405.333333S106.666667 607.850667 106.666667 384a404.266667 404.266667 0 0 1 131.264-298.645333zM512-64C264.576-64 64 136.576 64 384S264.576 832 512 832s448-200.576 448-448-200.576-448-448-448z m0 384a170.666667 170.666667 0 1 1 0 341.333333 170.666667 170.666667 0 0 1 0-341.333333z"/></svg>