<?xml version="1.0" standalone="no"?><!DOCTYPE svg PUBLIC "-//W3C//DTD SVG 1.1//EN"
        "http://www.w3.org/Graphics/SVG/1.1/DTD/svg11.dtd"><svg viewBox="0 0 1024 1024" version="1.1" xmlns="http://www.w3.org/2000/svg" xmlns:xlink="http://www.w3.org/1999/xlink"><path transform="scale(1, -1) translate(0, -1024)" d="M55.351351 342.597189v-110.924108a83.027027 83.027027 0 0 1 166.054054 0v110.924108a83.027027 83.027027 0 0 1-166.054054 0z m763.101406-211.552865A137.852541 137.852541 0 0 0 774.918919 231.673081v110.924108A138.378378 138.378378 0 0 0 912.328649 480.864865C898.131027 681.928649 730.499459 840.648649 525.837838 840.648649 321.148541 840.648649 153.544649 681.928649 139.347027 480.864865A138.461405 138.461405 0 0 0 276.756757 342.597189v-110.924108a138.378378 138.378378 0 0 0-276.756757 0v110.924108a138.378378 138.378378 0 0 0 83.303784 126.865297C91.883243 706.476973 286.72 896 525.837838 896s433.954595-189.523027 442.534054-426.537514A138.461405 138.461405 0 0 0 1051.675676 342.597189v-110.924108a138.378378 138.378378 0 0 0-184.790487-130.269405 470.763243 470.763243 0 0 0-188.858811-121.21946A96.809514 96.809514 0 0 0 580.912432-114.162162h-82.528864c-53.690811 0-97.113946 43.174054-97.113946 96.864865 0 53.607784 43.284757 96.864865 97.141621 96.864865h82.473514c34.954378 0 65.536-18.265946 82.639567-45.803244a415.273514 415.273514 0 0 1 154.900757 97.28zM830.27027 342.597189v-110.924108a83.027027 83.027027 0 0 1 166.054054 0v110.924108a83.027027 83.027027 0 0 1-166.054054 0zM498.438919-58.810811h82.473513c23.302919 0 41.79027 18.487351 41.790271 41.513514 0 23.053838-18.570378 41.513514-41.790271 41.513513h-82.473513c-23.302919 0-41.79027-18.487351-41.79027-41.513513 0-23.053838 18.570378-41.513514 41.79027-41.513514z"/></svg>