<?xml version="1.0" standalone="no"?><!DOCTYPE svg PUBLIC "-//W3C//DTD SVG 1.1//EN"
        "http://www.w3.org/Graphics/SVG/1.1/DTD/svg11.dtd"><svg viewBox="0 0 1024 1024" version="1.1" xmlns="http://www.w3.org/2000/svg" xmlns:xlink="http://www.w3.org/1999/xlink"><path transform="scale(1, -1) translate(0, -1024)" d="M940.8 700.8C928 800 841.6 880 736 880H288C182.4 880 96 800 83.2 700.8 35.2 684.8 0 643.2 0 592v-512C0 19.200000000000045 51.2-32 112-32h12.8C163.2-80 224-112 288-112h448c64 0 124.8 32 163.2 80h12.8c60.8 0 112 51.2 112 112v512c0 51.2-35.2 92.8-83.2 108.8zM288 848h448c86.4 0 156.8-60.8 172.8-144-60.8-3.2-108.8-51.2-108.8-112v-512H224v512C224 652.8 176 700.8 115.2 704 131.2 787.2 201.6 848 288 848z m-256-768v512C32 636.8 67.2 672 112 672S192 636.8 192 592v-512C192 35.200000000000045 156.8 0 112 0S32 35.200000000000045 32 80z m704-160H288c-51.2 0-96 22.4-131.2 57.6 28.8 12.8 51.2 38.4 60.8 70.4h585.6c9.6-32 32-57.6 60.8-70.4-32-35.2-76.8-57.6-128-57.6z m256 160c0-44.8-35.2-80-80-80S832 35.200000000000045 832 80v512C832 636.8 867.2 672 912 672S992 636.8 992 592v-512z"/></svg>