<?xml version="1.0" standalone="no"?><!DOCTYPE svg PUBLIC "-//W3C//DTD SVG 1.1//EN"
        "http://www.w3.org/Graphics/SVG/1.1/DTD/svg11.dtd"><svg viewBox="0 0 1024 1024" version="1.1" xmlns="http://www.w3.org/2000/svg" xmlns:xlink="http://www.w3.org/1999/xlink"><path transform="scale(1, -1) translate(0, -1024)" d="M614.4-128C276.48-128 0 97.28 0 384S276.48 896 614.4 896s614.4-225.28 614.4-512-276.48-512-614.4-512z m0 102.4c286.72 0 512 184.32 512 409.6s-225.28 409.6-512 409.6S102.4 609.28 102.4 384s225.28-409.6 512-409.6z m0 153.6c-143.36 0-256 112.64-256 256s112.64 256 256 256 256-112.64 256-256-112.64-256-256-256z m0 102.4c87.04 0 153.6 66.56 153.6 153.6s-66.56 153.6-153.6 153.6-153.6-66.56-153.6-153.6 66.56-153.6 153.6-153.6z"/></svg>