<?xml version="1.0" standalone="no"?><!DOCTYPE svg PUBLIC "-//W3C//DTD SVG 1.1//EN"
        "http://www.w3.org/Graphics/SVG/1.1/DTD/svg11.dtd"><svg viewBox="0 0 1024 1024" version="1.1" xmlns="http://www.w3.org/2000/svg" xmlns:xlink="http://www.w3.org/1999/xlink"><path transform="scale(1, -1) translate(0, -1024)" d="M704 725.333333H320v-53.333333a21.333333 21.333333 0 0 0-42.666667 0V725.333333h-42.666666a106.666667 106.666667 0 0 1-106.666667-106.666666v-85.333334h768v85.333334a106.666667 106.666667 0 0 1-106.666667 106.666666h-42.666666v-53.333333a21.333333 21.333333 0 0 0-42.666667 0V725.333333z m42.666667 42.666667h42.666666a149.333333 149.333333 0 0 0 149.333334-149.333333v-512a149.333333 149.333333 0 0 0-149.333334-149.333334H234.666667a149.333333 149.333333 0 0 0-149.333334 149.333334V618.666667a149.333333 149.333333 0 0 0 149.333334 149.333333h42.666666V800a21.333333 21.333333 0 0 0 42.666667 0V768h384V800a21.333333 21.333333 0 0 0 42.666667 0V768z m149.333333-277.333333H128v-384a106.666667 106.666667 0 0 1 106.666667-106.666667h554.666666a106.666667 106.666667 0 0 1 106.666667 106.666667V490.666667zM327.210667 253.696a21.333333 21.333333 0 0 0 28.245333 32l98.048-86.549333a21.333333 21.333333 0 0 1 29.866667 1.642666l179.882666 197.568a21.333333 21.333333 0 0 0 31.552-28.714666l-179.861333-197.568a64 64 0 0 0-89.664-4.906667l-98.069333 86.528z"/></svg>