<?xml version="1.0" standalone="no"?><!DOCTYPE svg PUBLIC "-//W3C//DTD SVG 1.1//EN"
        "http://www.w3.org/Graphics/SVG/1.1/DTD/svg11.dtd"><svg viewBox="0 0 1024 1024" version="1.1" xmlns="http://www.w3.org/2000/svg" xmlns:xlink="http://www.w3.org/1999/xlink"><path transform="scale(1, -1) translate(0, -1024)" d="M665.6 768a21.333333 21.333333 0 1 0 0 42.666667h123.648A149.482667 149.482667 0 0 0 938.666667 661.184v-133.504a21.333333 21.333333 0 1 0-42.666667 0v133.504A106.816 106.816 0 0 1 789.248 768h-123.669333zM896 220.032a21.333333 21.333333 0 1 0 42.666667 0v-113.258667A149.397333 149.397333 0 0 0 789.333333-42.666667H234.666667c-82.389333 0-149.333333 66.986667-149.333334 149.205334v122.752a21.333333 21.333333 0 0 0 42.666667 0v-122.752A106.773333 106.773333 0 0 1 234.666667 0h554.666666c58.88 0 106.666667 47.808 106.666667 106.773333v113.28zM128 532.949333a21.333333 21.333333 0 1 0-42.666667 0v128.213334C85.333333 743.701333 152.170667 810.666667 234.624 810.666667h128.725333a21.333333 21.333333 0 0 0 0-42.666667h-128.725333A106.730667 106.730667 0 0 1 128 661.141333v-128.192zM106.666667 362.666667a21.333333 21.333333 0 0 0 0 42.666666h810.666666a21.333333 21.333333 0 0 0 0-42.666666H106.666667z"/></svg>