<?xml version="1.0" standalone="no"?><!DOCTYPE svg PUBLIC "-//W3C//DTD SVG 1.1//EN"
        "http://www.w3.org/Graphics/SVG/1.1/DTD/svg11.dtd"><svg viewBox="0 0 1024 1024" version="1.1" xmlns="http://www.w3.org/2000/svg" xmlns:xlink="http://www.w3.org/1999/xlink"><path transform="scale(1, -1) translate(0, -1024)" d="M768 167.384615v7.876923 11.815385c-11.815385 110.276923-122.092308 196.923077-256 196.923077s-244.184615-86.646154-256-192.984615v-23.63077c0-43.323077 35.446154-78.769231 78.769231-78.76923h354.461538c43.323077 0 78.769231 35.446154 78.769231 78.76923zM512-128C228.430769-128 0 100.430769 0 384S228.430769 896 512 896s512-228.430769 512-512-228.430769-512-512-512z m0 555.323077c94.523077 0 169.353846 74.830769 169.353846 169.353846S606.523077 769.969231 512 769.969231s-169.353846-78.769231-169.353846-173.292308 74.830769-169.353846 169.353846-169.353846z"/></svg>