<?xml version="1.0" standalone="no"?><!DOCTYPE svg PUBLIC "-//W3C//DTD SVG 1.1//EN"
        "http://www.w3.org/Graphics/SVG/1.1/DTD/svg11.dtd"><svg viewBox="0 0 1024 1024" version="1.1" xmlns="http://www.w3.org/2000/svg" xmlns:xlink="http://www.w3.org/1999/xlink"><path transform="scale(1, -1) translate(0, -1024)" d="M896 399.104a25.6 25.6 0 0 0 51.2 0V128a179.2 179.2 0 0 0-179.2-179.2H256a179.2 179.2 0 0 0-179.2 179.2V640a179.2 179.2 0 0 0 179.2 179.2h313.1392a25.6 25.6 0 0 0 0-51.2H256a128 128 0 0 1-128-128v-512a128 128 0 0 1 128-128h512a128 128 0 0 1 128 128V399.104z m-5.9392 373.5296a25.6 25.6 0 1 0 37.4784-34.8672L547.2 328.9088a25.6 25.6 0 0 0-37.4784 34.8672L890.0608 772.6336z"/></svg>