<?xml version="1.0" standalone="no"?><!DOCTYPE svg PUBLIC "-//W3C//DTD SVG 1.1//EN"
        "http://www.w3.org/Graphics/SVG/1.1/DTD/svg11.dtd"><svg viewBox="0 0 1024 1024" version="1.1" xmlns="http://www.w3.org/2000/svg" xmlns:xlink="http://www.w3.org/1999/xlink"><path transform="scale(1, -1) translate(0, -1024)" d="M737.28 216.06399999999996l-114.688 114.688c-16.384 16.384-40.96 16.384-57.344 0-16.384-16.384-16.384-40.96 0-57.344l114.688-114.688-114.688-114.688c-16.384-16.384-16.384-40.96 0-57.344 16.384-16.384 40.96-16.384 57.344 0l114.688 114.688 114.688-114.688c16.384-16.384 40.96-16.384 57.344 0 16.384 16.384 16.384 40.96 0 57.344L794.624 158.72000000000003l114.688 114.688c16.384 16.384 16.384 40.96 0 57.344-16.384 16.384-40.96 16.384-57.344 0L737.28 216.06399999999996zM1024 855.04v-737.28c0-135.168-110.592-245.76-245.76-245.76H40.96L1024 855.04zM778.24-128H40.96L1024 855.04v-737.28c0-135.168-110.592-245.76-245.76-245.76zM139.264-87.03999999999996H778.24c32.768 0 61.44 8.192 90.112 20.48-16.384 4.096-32.768 12.288-45.056 24.576L737.28 44.03200000000004 651.264-46.08000000000004c-32.768-32.768-81.92-32.768-114.688 0-32.768 32.768-32.768 81.92 0 114.688l86.016 86.016-90.112 90.112c-12.288 12.288-20.48 24.576-20.48 40.96L139.264-87.03999999999996z m454.656 430.08c-12.288 0-20.48-4.096-28.672-12.288-16.384-16.384-16.384-40.96 0-57.344l114.688-114.688-114.688-114.688c-16.384-16.384-16.384-40.96 0-57.344 16.384-16.384 40.96-16.384 57.344 0l114.688 114.688 114.688-114.688c16.384-16.384 40.96-16.384 57.344 0 16.384 16.384 16.384 40.96 0 57.344L794.624 158.72000000000003l114.688 114.688c16.384 16.384 16.384 40.96 0 57.344-16.384 16.384-40.96 16.384-57.344 0L737.28 216.06399999999996l-114.688 114.688c-8.192 8.192-20.48 12.288-28.672 12.288z m258.048-184.32l86.016-86.016c12.288-12.288 20.48-28.672 24.576-45.056 12.288 28.672 20.48 57.344 20.48 90.112V756.736l-372.736-372.736c16.384-4.096 28.672-12.288 40.96-20.48l86.016-86.016 86.016 86.016c32.768 32.768 81.92 32.768 114.688 0 32.768-32.768 32.768-81.92 0-114.688L851.968 158.72000000000003z"/></svg>