<?xml version="1.0" standalone="no"?><!DOCTYPE svg PUBLIC "-//W3C//DTD SVG 1.1//EN"
        "http://www.w3.org/Graphics/SVG/1.1/DTD/svg11.dtd"><svg viewBox="0 0 1024 1024" version="1.1" xmlns="http://www.w3.org/2000/svg" xmlns:xlink="http://www.w3.org/1999/xlink"><path transform="scale(1, -1) translate(0, -1024)" d="M544 734.4639999999999a330.666667 330.666667 0 0 0 298.666667-329.130667h-0.341334c0.213333-1.493333 0.341333-2.986667 0.341334-4.565333v-219.434667h39.68a32 32 0 0 0 0-64h-212.053334a160 160 0 0 0-316.586666 0H141.909333a32 32 0 1 0 0 64h39.424v219.434667c0 1.578667 0.128 3.072 0.341334 4.565333H181.333333a330.666667 330.666667 0 0 0 298.666667 329.130667V768a32 32 0 1 0 64 0v-33.536z m-298.666667-553.130667h533.333334v219.434667c0 1.578667 0.128 3.072 0.341333 4.565333h-0.341333a266.666667 266.666667 0 1 1-533.333334 0h-0.341333c0.213333-1.493333 0.341333-2.986667 0.341333-4.565333v-219.434667z m359.765334-64H418.901333a96 96 0 0 1 186.197334 0z"/></svg>