<?xml version="1.0" standalone="no"?><!DOCTYPE svg PUBLIC "-//W3C//DTD SVG 1.1//EN"
        "http://www.w3.org/Graphics/SVG/1.1/DTD/svg11.dtd"><svg viewBox="0 0 1024 1024" version="1.1" xmlns="http://www.w3.org/2000/svg" xmlns:xlink="http://www.w3.org/1999/xlink"><path transform="scale(1, -1) translate(0, -1024)" d="M840.691358 832.790123h-50.567901V870.716049a25.283951 25.283951 0 0 1-50.567901 0v-37.925926H284.444444V870.716049a25.283951 25.283951 0 0 1-50.567901 0v-37.925926H183.308642a176.987654 176.987654 0 0 1-176.987654-176.987654v-606.814815a176.987654 176.987654 0 0 1 176.987654-176.987654h657.382716a176.987654 176.987654 0 0 1 176.987654 176.987654v606.814815a176.987654 176.987654 0 0 1-176.987654 176.987654z m126.419753-783.802469a126.419753 126.419753 0 0 0-126.419753-126.419753H183.308642a126.419753 126.419753 0 0 0-126.419753 126.419753v455.111111h910.222222z m0 505.679013H56.888889v101.135802a126.419753 126.419753 0 0 0 126.419753 126.419753h50.567901V719.012346a25.283951 25.283951 0 0 1 50.567901 0V782.222222h455.111112V719.012346a25.283951 25.283951 0 0 1 50.567901 0V782.222222h50.567901a126.419753 126.419753 0 0 0 126.419753-126.419753zM257.643457 282.864198h510.482963a23.766914 23.766914 0 0 1 0 47.280987H257.643457a23.766914 23.766914 0 0 1 0-47.533827zM257.643457 80.592593h510.482963a23.766914 23.766914 0 1 1 0 47.280987H257.643457a23.766914 23.766914 0 0 1 0-47.533827z"/></svg>