<?xml version="1.0" standalone="no"?><!DOCTYPE svg PUBLIC "-//W3C//DTD SVG 1.1//EN"
        "http://www.w3.org/Graphics/SVG/1.1/DTD/svg11.dtd"><svg viewBox="0 0 1024 1024" version="1.1" xmlns="http://www.w3.org/2000/svg" xmlns:xlink="http://www.w3.org/1999/xlink"><path transform="scale(1, -1) translate(0, -1024)" d="M341.333333 725.333333v-682.666666h490.666667a106.666667 106.666667 0 0 1 106.666667 106.666666v56.490667a21.333333 21.333333 0 0 0 42.666666 0V149.333333a149.333333 149.333333 0 0 0-149.333333-149.333333H192a149.333333 149.333333 0 0 0-149.333333 149.333333v126.506667l17.813333 2.986667a106.709333 106.709333 0 0 1 0 210.346666L42.666667 492.16V618.666667a149.333333 149.333333 0 0 0 149.333333 149.333333h640a149.333333 149.333333 0 0 0 149.333333-149.333333v-38.741334a21.333333 21.333333 0 1 0-42.666666 0V618.666667a106.666667 106.666667 0 0 1-106.666667 106.666666H341.333333z m-42.666666-682.666666V725.333333H192a106.666667 106.666667 0 0 1-106.666667-106.666666v-91.52a149.418667 149.418667 0 0 0 0-286.293334V149.333333a106.666667 106.666667 0 0 1 106.666667-106.666666h106.666667z m202.773333 343.466666c0 4.629333 1.536 9.322667 4.693333 13.226667l116.608 145.557333a21.333333 21.333333 0 0 0 33.301334-26.666666L565.589333 405.333333H949.333333a21.333333 21.333333 0 0 0 0-42.666666H565.802667l90.24-112.64a21.333333 21.333333 0 1 0-33.28-26.666667l-116.629334 145.536a21.248 21.248 0 0 0-4.693333 12.949333 21.589333 21.589333 0 0 0 0 4.266667z"/></svg>