<?xml version="1.0" standalone="no"?><!DOCTYPE svg PUBLIC "-//W3C//DTD SVG 1.1//EN"
        "http://www.w3.org/Graphics/SVG/1.1/DTD/svg11.dtd"><svg viewBox="0 0 1024 1024" version="1.1" xmlns="http://www.w3.org/2000/svg" xmlns:xlink="http://www.w3.org/1999/xlink"><path transform="scale(1, -1) translate(0, -1024)" d="M115.968-31.936A112 112 0 0 0 0 80v512c0 50.88 33.92 93.792 80.32 107.456A192 192 0 0 0 272 880h480a192 192 0 0 0 191.68-180.544A112.064 112.064 0 0 0 1024 592v-512a112 112 0 0 0-115.968-111.936A191.744 191.744 0 0 0 752-112h-480a191.744 191.744 0 0 0-156.032 80.064z"/></svg>